<?xml version="1.0" standalone="no"?>
<!DOCTYPE svg PUBLIC "-//W3C//DTD SVG 20010904//EN"
 "http://www.w3.org/TR/2001/REC-SVG-20010904/DTD/svg10.dtd">
<svg version="1.0" xmlns="http://www.w3.org/2000/svg"
 width="271.000000pt" height="270.000000pt" viewBox="0 0 271.000000 270.000000"
 preserveAspectRatio="xMidYMid meet">

<g transform="translate(0.000000,270.000000) scale(0.100000,-0.100000)"
fill="#000000" stroke="none">
<path d="M1251 2089 c-81 -14 -178 -65 -239 -125 -64 -65 -124 -185 -149 -299
-24 -111 -24 -339 -1 -415 38 -121 108 -193 227 -231 83 -27 339 -38 449 -19
139 23 236 91 286 200 59 130 52 395 -15 577 -88 235 -301 354 -558 312z"/>
<path d="M1197 795 c-358 -68 -643 -357 -721 -732 l-14 -63 890 0 890 0 -7 42
c-11 70 -64 218 -102 288 -121 224 -336 394 -573 454 -92 24 -267 29 -363 11z"/>
</g>
</svg>
